<svg width="186" height="67" viewBox="0 0 186 67" fill="none" xmlns="http://www.w3.org/2000/svg">
<rect x="144.343" y="5.70874" width="42.8155" height="42.8155" rx="11.4175" transform="rotate(45 144.343 5.70874)" fill="#F72585"/>
<path d="M40.312 54.9323C38.8392 55.4119 37.3149 55.6517 35.7393 55.6517C32.3483 55.6517 29.6938 54.7611 27.7756 52.98C25.8917 51.2331 24.9498 48.7155 24.9498 45.4273V23.8483C24.9498 22.2384 24.5559 21.0224 23.7681 20.2004C23.0145 19.3783 21.9185 18.9673 20.4799 18.9673C19.144 18.9673 18.0993 19.327 17.3458 20.0463C16.5922 20.7313 16.1469 21.776 16.0099 23.1803H22.3809V30.4761H16.0099V50H6.24797V30.4761H2.18906V23.1803H6.29935C6.53912 19.5496 7.87496 16.6895 10.3069 14.6001C12.7731 12.4765 16.164 11.4146 20.4799 11.4146C25.1039 11.4146 28.6319 12.5621 31.0639 14.857C33.4958 17.1519 34.7117 20.3031 34.7117 24.3107V44.8621C34.7117 45.924 34.9686 46.7289 35.4824 47.2769C35.9962 47.825 36.7326 48.099 37.6917 48.099C38.548 48.099 39.2844 47.9277 39.901 47.5852L40.312 54.9323ZM43.8523 22.1528H53.6143V50H43.8523V22.1528ZM48.7333 19.0701C46.9522 19.0701 45.5136 18.5734 44.4175 17.5801C43.3214 16.5868 42.7734 15.3537 42.7734 13.8808C42.7734 12.408 43.3214 11.1749 44.4175 10.1816C45.5136 9.18823 46.9522 8.69157 48.7333 8.69157C50.5144 8.69157 51.953 9.17111 53.0491 10.1302C54.1452 11.055 54.6932 12.2538 54.6932 13.7267C54.6932 15.268 54.1452 16.5525 53.0491 17.5801C51.953 18.5734 50.5144 19.0701 48.7333 19.0701ZM77.4784 21.6904C80.0131 21.6904 82.308 22.2898 84.3632 23.4886C86.4526 24.6532 88.0967 26.3316 89.2955 28.5237C90.5286 30.6816 91.1452 33.1992 91.1452 36.0764C91.1452 38.9536 90.5286 41.4883 89.2955 43.6804C88.0967 45.8383 86.4526 47.5167 84.3632 48.7155C82.308 49.8801 80.0131 50.4624 77.4784 50.4624C74.2245 50.4624 71.6384 49.4862 69.7203 47.5338V59.9675H59.9583V22.1528H69.2579V24.9272C71.0732 22.7693 73.8134 21.6904 77.4784 21.6904ZM75.4233 42.7042C77.1359 42.7042 78.5403 42.1219 79.6363 40.9574C80.7324 39.7585 81.2805 38.1315 81.2805 36.0764C81.2805 34.0212 80.7324 32.4114 79.6363 31.2468C78.5403 30.048 77.1359 29.4485 75.4233 29.4485C73.7107 29.4485 72.3063 30.048 71.2102 31.2468C70.1142 32.4114 69.5661 34.0212 69.5661 36.0764C69.5661 38.1315 70.1142 39.7585 71.2102 40.9574C72.3063 42.1219 73.7107 42.7042 75.4233 42.7042ZM113.203 21.6904C115.737 21.6904 118.032 22.2898 120.087 23.4886C122.177 24.6532 123.821 26.3316 125.02 28.5237C126.253 30.6816 126.869 33.1992 126.869 36.0764C126.869 38.9536 126.253 41.4883 125.02 43.6804C123.821 45.8383 122.177 47.5167 120.087 48.7155C118.032 49.8801 115.737 50.4624 113.203 50.4624C109.949 50.4624 107.363 49.4862 105.444 47.5338V59.9675H95.6825V22.1528H104.982V24.9272C106.797 22.7693 109.538 21.6904 113.203 21.6904ZM111.147 42.7042C112.86 42.7042 114.264 42.1219 115.361 40.9574C116.457 39.7585 117.005 38.1315 117.005 36.0764C117.005 34.0212 116.457 32.4114 115.361 31.2468C114.264 30.048 112.86 29.4485 111.147 29.4485C109.435 29.4485 108.031 30.048 106.934 31.2468C105.838 32.4114 105.29 34.0212 105.29 36.0764C105.29 38.1315 105.838 39.7585 106.934 40.9574C108.031 42.1219 109.435 42.7042 111.147 42.7042ZM146.307 43.0125C147.642 43.0125 148.79 42.8241 149.749 42.4473C150.742 42.0706 151.736 41.454 152.729 40.5977L157.815 45.9411C155.178 48.9553 151.239 50.4624 145.998 50.4624C142.744 50.4624 139.884 49.8459 137.418 48.6128C134.952 47.3797 133.034 45.6671 131.664 43.4749C130.328 41.2828 129.66 38.7995 129.66 36.025C129.66 33.2848 130.328 30.8358 131.664 28.6779C132.999 26.4857 134.832 24.7731 137.161 23.54C139.525 22.3069 142.162 21.6904 145.073 21.6904C147.779 21.6904 150.246 22.2555 152.472 23.3859C154.733 24.4819 156.531 26.1089 157.867 28.2668C159.203 30.3905 159.871 32.9252 159.871 35.8709L139.987 39.6729C141.049 41.8993 143.155 43.0125 146.307 43.0125ZM145.125 28.6265C143.446 28.6265 142.076 29.1574 141.015 30.2192C139.953 31.2468 139.353 32.7368 139.216 34.6892L150.52 32.4799C150.177 31.3153 149.526 30.3905 148.567 29.7054C147.608 28.9861 146.461 28.6265 145.125 28.6265ZM173.671 25.4924C174.664 24.225 175.949 23.2831 177.524 22.6666C179.134 22.0158 180.967 21.6904 183.022 21.6904V30.4761C182.131 30.3734 181.395 30.322 180.813 30.322C178.723 30.322 177.079 30.8871 175.88 32.0175C174.716 33.1478 174.133 34.8776 174.133 37.2067V50H164.371V22.1528H173.671V25.4924Z" fill="white"/>
</svg>
