<svg width="82" height="30" viewBox="0 0 82 30" fill="none" xmlns="http://www.w3.org/2000/svg">
<rect x="63.6352" y="2.51678" width="18.8757" height="18.8757" rx="5.1147" transform="rotate(45 63.6352 2.51678)" fill="white"/>
<path d="M17.3973 24.2095C16.7375 24.4244 16.0547 24.5318 15.3489 24.5318C13.8298 24.5318 12.6406 24.1328 11.7814 23.3349C10.9375 22.5524 10.5155 21.4246 10.5155 19.9516V10.2848C10.5155 9.56362 10.339 9.0189 9.98612 8.65064C9.64855 8.28238 9.15754 8.09826 8.51309 8.09826C7.91467 8.09826 7.44667 8.25937 7.1091 8.58159C6.77153 8.88848 6.57206 9.35647 6.51068 9.98558H9.36468V13.2539H6.51068V22H2.13762V13.2539H0.319344V9.98558H2.16063C2.26804 8.35911 2.86646 7.07787 3.95589 6.14188C5.06067 5.19055 6.57973 4.71488 8.51309 4.71488C10.5845 4.71488 12.165 5.22891 13.2544 6.25697C14.3438 7.28502 14.8886 8.69667 14.8886 10.4919V19.6984C14.8886 20.1741 15.0036 20.5346 15.2338 20.7801C15.464 21.0257 15.7939 21.1484 16.2235 21.1484C16.6071 21.1484 16.937 21.0717 17.2132 20.9182L17.3973 24.2095ZM18.9833 9.52525H23.3563V22H18.9833V9.52525ZM21.1698 8.14429C20.3719 8.14429 19.7275 7.9218 19.2364 7.47682C18.7454 7.03184 18.4999 6.47945 18.4999 5.81966C18.4999 5.15986 18.7454 4.60747 19.2364 4.1625C19.7275 3.71752 20.3719 3.49503 21.1698 3.49503C21.9677 3.49503 22.6121 3.70985 23.1032 4.13948C23.5942 4.55377 23.8397 5.09081 23.8397 5.75061C23.8397 6.44109 23.5942 7.0165 23.1032 7.47682C22.6121 7.9218 21.9677 8.14429 21.1698 8.14429ZM34.0468 9.31811C35.1823 9.31811 36.2103 9.58663 37.131 10.1237C38.0669 10.6454 38.8035 11.3972 39.3405 12.3793C39.8929 13.3459 40.1691 14.4737 40.1691 15.7626C40.1691 17.0515 39.8929 18.187 39.3405 19.169C38.8035 20.1357 38.0669 20.8876 37.131 21.4246C36.2103 21.9463 35.1823 22.2071 34.0468 22.2071C32.5891 22.2071 31.4306 21.7698 30.5714 20.8952V26.4651H26.1983V9.52525H30.3642V10.7681C31.1774 9.80145 32.405 9.31811 34.0468 9.31811ZM33.1261 18.7317C33.8933 18.7317 34.5225 18.4709 35.0135 17.9492C35.5045 17.4121 35.75 16.6833 35.75 15.7626C35.75 14.842 35.5045 14.1208 35.0135 13.5991C34.5225 13.0621 33.8933 12.7935 33.1261 12.7935C32.3589 12.7935 31.7298 13.0621 31.2388 13.5991C30.7478 14.1208 30.5023 14.842 30.5023 15.7626C30.5023 16.6833 30.7478 17.4121 31.2388 17.9492C31.7298 18.4709 32.3589 18.7317 33.1261 18.7317ZM50.0502 9.31811C51.1857 9.31811 52.2137 9.58663 53.1344 10.1237C54.0703 10.6454 54.8069 11.3972 55.3439 12.3793C55.8963 13.3459 56.1725 14.4737 56.1725 15.7626C56.1725 17.0515 55.8963 18.187 55.3439 19.169C54.8069 20.1357 54.0703 20.8876 53.1344 21.4246C52.2137 21.9463 51.1857 22.2071 50.0502 22.2071C48.5925 22.2071 47.434 21.7698 46.5748 20.8952V26.4651H42.2017V9.52525H46.3676V10.7681C47.1809 9.80145 48.4084 9.31811 50.0502 9.31811ZM49.1296 18.7317C49.8968 18.7317 50.5259 18.4709 51.0169 17.9492C51.5079 17.4121 51.7534 16.6833 51.7534 15.7626C51.7534 14.842 51.5079 14.1208 51.0169 13.5991C50.5259 13.0621 49.8968 12.7935 49.1296 12.7935C48.3623 12.7935 47.7332 13.0621 47.2422 13.5991C46.7512 14.1208 46.5057 14.842 46.5057 15.7626C46.5057 16.6833 46.7512 17.4121 47.2422 17.9492C47.7332 18.4709 48.3623 18.7317 49.1296 18.7317ZM77.1382 11.0213C77.5832 10.4536 78.1586 10.0316 78.8644 9.75542C79.5856 9.46388 80.4065 9.31811 81.3271 9.31811V13.2539C80.9282 13.2078 80.5983 13.1848 80.3374 13.1848C79.4015 13.1848 78.6649 13.438 78.1279 13.9444C77.6062 14.4507 77.3453 15.2256 77.3453 16.269V22H72.9723V9.52525H77.1382V11.0213Z" fill="white"/>
<path d="M64.8798 18.8698C65.4782 18.8698 65.9922 18.7854 66.4219 18.6166C66.8668 18.4478 67.3118 18.1716 67.7568 17.788L70.0354 20.1817C68.8539 21.532 67.0893 22.2071 64.7417 22.2071C63.284 22.2071 62.0028 21.931 60.898 21.3786C59.7932 20.8262 58.9339 20.059 58.3202 19.077C57.7218 18.0949 57.4225 16.9825 57.4225 15.7396C57.4225 14.5121 57.7218 13.415 58.3202 12.4483C58.9186 11.4663 59.7395 10.6991 60.7829 10.1467C61.8416 9.5943 63.0231 9.31811 64.3274 9.31811C65.5396 9.31811 66.6443 9.57129 67.6417 10.0776C68.6544 10.5687 69.46 11.2975 70.0584 12.2642C70.6568 13.2155 70.956 14.351 70.956 15.6706L62.0488 17.3738C62.5245 18.3711 63.4681 18.8698 64.8798 18.8698ZM64.3504 12.4253C63.5985 12.4253 62.9848 12.6631 62.5091 13.1388C62.0334 13.5991 61.7649 14.2666 61.7035 15.1412L66.7671 14.1515C66.6137 13.6298 66.3221 13.2155 65.8925 12.9086C65.4629 12.5864 64.9488 12.4253 64.3504 12.4253Z" fill="#F72585"/>
</svg>
